<?xml version="1.0" encoding="utf-8"?>
<!-- Generator: Adobe Illustrator 26.0.3, SVG Export Plug-In . SVG Version: 6.00 Build 0)  -->
<svg version="1.1" id="Camada_1" xmlns="http://www.w3.org/2000/svg" xmlns:xlink="http://www.w3.org/1999/xlink" x="0px" y="0px"
	 viewBox="0 0 534 219.8" style="enable-background:new 0 0 534 219.8;" xml:space="preserve">
<style type="text/css">
	.st0{fill:#FFFFFF;}
	.st1{enable-background:new    ;}
</style>
<g id="Grupo_68" transform="translate(-376 -300.245)">
	<g id="Grupo_17" transform="translate(199.336 -184.705)">
		<path id="Caminho_8" class="st0" d="M408.7,559c-1.3,1.2-3,1.9-4.7,1.8h-54.6c0.9,6.4,4.1,12.2,9.1,16.2c5,4.1,11.2,6.2,18.5,6.2
			c3.1,0,6.1-0.6,9-1.6c2.8-0.9,5.4-2.2,7.7-3.9c1.4-1.1,3-1.6,4.7-1.6c1.6-0.1,3.1,0.4,4.3,1.4c1.6,1.1,2.5,2.9,2.6,4.9
			c0,1.7-0.9,3.3-2.3,4.3c-3.7,2.8-7.8,4.9-12.1,6.3c-11.5,4-24.2,3.1-35-2.7c-6.1-3.3-11.1-8.2-14.6-14.2
			c-3.6-6.3-5.4-13.4-5.2-20.5c-0.1-7.2,1.6-14.3,5-20.6c3.2-5.9,8-10.9,13.8-14.2c6.1-3.5,13-5.2,20-5.1c7.4,0,13.7,1.6,19.1,4.9
			c5.4,3.3,9.7,8,12.4,13.7c3,6.3,4.4,13.2,4.3,20.1C410.6,556.2,409.9,557.8,408.7,559z M357.7,533.9c-4.5,4-7.4,9.4-8.3,15.4h47.9
			c-0.9-6.4-3.3-11.5-7.2-15.4s-9.1-5.7-15.4-5.7C367.8,528.2,362.1,530.1,357.7,533.9z"/>
		<path id="Caminho_9" class="st0" d="M469.9,518.9c4.5,1.7,8.6,4.6,11.7,8.3c1.1,1.3,1.8,2.9,1.9,4.6c-0.1,1.8-1,3.4-2.4,4.5
			c-1.2,0.8-2.6,1.2-4,1.2c-2.5,0-4.9-1-6.8-2.7c-2.2-2.1-4.8-3.7-7.6-4.7c-3.2-1-6.5-1.4-9.8-1.4c-3.7-0.1-7.5,0.6-10.8,2.2
			c-2.8,1.5-4.2,3.6-4.2,6.3c-0.1,1.7,0.4,3.4,1.4,4.8c1,1.3,2.8,2.5,5.5,3.6c3.8,1.4,7.7,2.5,11.6,3.2c10.4,2.1,17.8,5,22.2,8.8
			c4.3,3.6,6.7,8.9,6.5,14.5c0,4.3-1.2,8.5-3.6,12c-2.6,3.8-6.3,6.7-10.6,8.5c-5.3,2.2-11,3.2-16.7,3.1c-6.3,0-12.5-1-18.4-3
			c-5.7-2-10.3-4.6-13.5-7.9c-1.2-1.2-1.9-2.8-1.9-4.5c0-2.2,1-4.3,2.9-5.6c1.4-1.2,3.2-1.9,5-2c2.1,0.1,4.1,1,5.5,2.6
			c2.3,2.3,5.1,4.1,8.2,5.2c3.7,1.5,7.7,2.3,11.6,2.2c5.5,0,9.7-0.9,12.7-2.7s4.5-4.3,4.5-7.3c0-3-1.5-5.4-4.5-7.4
			c-3-2-8-3.6-15.1-5c-18.4-3.5-27.6-11.1-27.6-22.7c-0.1-4.4,1.4-8.6,4.2-11.9c2.9-3.4,6.7-5.9,10.9-7.3c4.6-1.7,9.5-2.5,14.4-2.5
			C458.9,515.7,464.6,516.8,469.9,518.9z"/>
		<path id="Caminho_10" class="st0" d="M504.8,518.4c2.8-2.9,7.4-3,10.3-0.2c1.5,1.4,2.3,3.5,2.3,5.6v63.9c0.1,1.9-0.7,3.8-2,5.2
			c-2.8,2.9-7.5,3-10.4,0.1c-1.5-1.4-2.3-3.4-2.2-5.4v-63.9C502.7,521.7,503.4,519.8,504.8,518.4z"/>
		<path id="Caminho_11" class="st0" d="M597.2,516.9c5.9,3.3,10.8,8.2,14.1,14.2c3.5,6.3,5.2,13.5,5.1,20.7v31
			c0.1,7.2-1.6,14.3-5,20.7c-3.3,6.1-8.2,11.2-14.2,14.7c-6.3,3.6-13.4,5.5-20.6,5.4c-6.6,0.1-13.2-1.3-19.3-4.1
			c-5.8-2.7-11-6.7-14.9-11.7c-1-1.1-1.5-2.5-1.6-4c0.1-2.1,1.2-4.1,3-5.2c1.2-0.8,2.6-1.3,4-1.3c2.3,0,4.5,1.1,5.9,3
			c2.6,3.3,5.9,6,9.8,7.7c4.2,1.8,8.8,2.7,13.4,2.7c4.5,0.1,8.9-1.1,12.8-3.4c3.9-2.4,7.1-5.8,9.2-9.9c2.4-4.8,3.6-10.2,3.4-15.6v-7
			c-2.8,5.1-6.8,9.3-11.8,12.4c-5,3-10.7,4.5-16.5,4.5c-6.7,0.1-13.3-1.7-19-5.1c-5.6-3.4-10.1-8.3-13.1-14.2
			c-3.2-6.4-4.8-13.4-4.7-20.5c-0.1-7.2,1.6-14.3,5-20.7c3.3-6,8.1-10.9,14.1-14.2c6.3-3.5,13.4-5.2,20.5-5.1
			C583.9,511.6,591,513.4,597.2,516.9z M590,575.1c3.9-2.3,7-5.6,9.1-9.6c2.2-4.3,3.3-9,3.2-13.9c0.1-4.8-1-9.6-3.2-13.9
			c-2-4-5.2-7.3-9.1-9.6c-8.2-4.6-18.1-4.6-26.3,0c-3.9,2.3-7,5.6-9.1,9.6c-2.2,4.3-3.4,9.1-3.3,13.9c-0.1,4.8,1.1,9.6,3.3,13.9
			c2.1,4,5.3,7.3,9.1,9.6C571.8,579.7,581.8,579.7,590,575.1z"/>
		<path id="Caminho_12" class="st0" d="M690.9,520c5.3,2.9,9.6,7.3,12.4,12.6c3,5.5,4.5,12.1,4.5,19.9v35.4c0.1,4-3.1,7.4-7.2,7.5
			c-4,0.1-7.4-3.1-7.5-7.2c0-0.1,0-0.2,0-0.3v-35.4c0-7.8-2.1-13.6-6.3-17.6s-9.7-6-16.6-6c-3.8,0-7.6,0.8-11,2.4
			c-3.1,1.5-5.8,3.8-7.8,6.6c-1.9,2.8-2.8,6-2.8,9.3v40.5c0.1,1.9-0.7,3.8-2,5.2c-2.8,2.9-7.5,3-10.4,0.1c-1.5-1.4-2.3-3.4-2.2-5.4
			v-64.1c-0.1-2,0.7-3.9,2.1-5.3c2.8-2.9,7.4-3,10.3-0.2c1.5,1.4,2.3,3.5,2.3,5.6v1.6c3.1-3.1,6.8-5.5,10.9-7.1
			c4.3-1.7,8.9-2.5,13.5-2.5C679.2,515.6,685.4,517.1,690.9,520z"/>
		<path id="Caminho_13" class="st0" d="M516.7,489.9c3.6,3.7,3.6,9.6-0.1,13.2c-3.7,3.6-9.6,3.6-13.2-0.1c-3.6-3.7-3.6-9.6,0.1-13.2
			c1.8-1.7,4.1-2.7,6.6-2.7C512.6,487,515,488,516.7,489.9z"/>
		<path id="Caminho_1" class="st0" d="M271.1,485h-19c-0.1,0-0.3,0-0.4,0h-0.1c-0.1,0-0.2,0-0.3,0l-0.2,0c-0.1,0-0.2,0-0.2,0
			s-0.2,0-0.3,0l-0.1,0c-1,0.2-2,0.5-2.9,1c-1,0.5-2,1.3-2.7,2.1c0,0,0,0,0,0.1c-0.1,0.1-0.1,0.1-0.2,0.2c0,0-0.1,0.1-0.1,0.1
			s-0.1,0.1-0.1,0.2c-0.1,0.1-0.1,0.2-0.2,0.2l-0.1,0.1c-0.1,0.1-0.1,0.2-0.2,0.3l0,0l-66,109c-2.5,4.2-1.2,9.6,3,12.1
			c0.1,0.1,0.2,0.1,0.4,0.2c1.4,0.8,3.1,1.2,4.7,1.2c3.3,0,6.4-1.7,8.1-4.5l7.7-12.7c0.3-0.5,0.9-0.9,1.6-0.9h39.2v45.5
			c0.1,5.1,4.3,9.1,9.4,9l0,0c5.1,0.1,9.3-3.9,9.4-9V594h9.6c31.3,0,56.7-24.4,56.7-54.5l0,0C327.7,509.4,302.4,485,271.1,485z
			 M213.3,575.9l29.4-48.5v48.5H213.3z M309,539.5c0,20.1-17,36.4-37.9,36.4h-9.6V503h9.6C292,503,309,519.3,309,539.5z"/>
	</g>
	<g class="st1">
		<path class="st0" d="M401.5,470.3c1.7,0.9,3.1,2.1,4.1,3.7c1,1.6,1.5,3.4,1.5,5.4c0,1.6-0.4,3.1-1.3,4.4s-2.1,2.3-3.6,3.2
			c2.3,0.5,4.1,1.6,5.4,3.2c1.3,1.6,2,3.6,2,6.1c0,2.3-0.5,4.3-1.6,6.1c-1.1,1.8-2.6,3.2-4.6,4.2c-1.9,1-4.2,1.5-6.6,1.5h-13
			c-0.7,0-1.4-0.2-1.9-0.8s-0.8-1.1-0.8-1.8v-33.9c0-0.8,0.2-1.4,0.8-1.9c0.5-0.5,1.1-0.7,1.9-0.7h11.9
			C397.8,469,399.8,469.4,401.5,470.3z M400.3,483.5c1.2-1,1.8-2.4,1.8-4.2s-0.6-3.2-1.8-4.2c-1.2-0.9-2.8-1.4-4.7-1.4h-9.3V485h9.3
			C397.5,485,399.1,484.5,400.3,483.5z M402.2,501.4c1.4-1.2,2.2-2.9,2.2-5.2c0-2.1-0.7-3.7-2.1-4.8c-1.4-1.1-3.3-1.7-5.7-1.7h-10.4
			v13.4h10.4C398.9,503.2,400.8,502.6,402.2,501.4z"/>
		<path class="st0" d="M441,481.3c0.5,0.5,0.7,1.1,0.7,1.9v22.3c0,0.7-0.2,1.3-0.7,1.8c-0.5,0.5-1.1,0.7-1.9,0.7
			c-0.7,0-1.3-0.2-1.8-0.7s-0.7-1.1-0.7-1.8v-0.5c-1.1,1.1-2.3,1.9-3.8,2.5c-1.5,0.6-3,0.9-4.7,0.9c-2.3,0-4.4-0.5-6.2-1.5
			s-3.3-2.5-4.3-4.4c-1-1.9-1.5-4.2-1.5-6.9v-12.3c0-0.7,0.2-1.3,0.7-1.8c0.5-0.5,1.1-0.7,1.8-0.7c0.7,0,1.3,0.2,1.8,0.7
			c0.5,0.5,0.7,1.1,0.7,1.8v12.3c0,2.7,0.7,4.7,2.2,6.1c1.5,1.4,3.4,2.1,5.8,2.1c1.4,0,2.7-0.3,3.8-0.9c1.1-0.6,2-1.3,2.7-2.3
			c0.6-1,1-2,1-3.2v-14.1c0-0.8,0.2-1.4,0.7-1.9c0.5-0.5,1.1-0.7,1.8-0.7C440,480.6,440.6,480.8,441,481.3z"/>
		<path class="st0" d="M456.1,470.6c0.7,0.7,1,1.4,1,2.3c0,0.9-0.3,1.7-1,2.3c-0.7,0.6-1.4,1-2.3,1c-0.9,0-1.7-0.3-2.3-1
			c-0.6-0.7-1-1.4-1-2.3c0-0.9,0.3-1.7,1-2.3c0.7-0.7,1.4-1,2.3-1C454.7,469.6,455.5,469.9,456.1,470.6z M452,481.4
			c0.5-0.5,1.1-0.7,1.8-0.7c0.8,0,1.4,0.2,1.9,0.7c0.5,0.5,0.7,1.1,0.7,1.8v22.2c0,0.7-0.2,1.3-0.7,1.8c-0.5,0.5-1.1,0.7-1.9,0.7
			c-0.7,0-1.3-0.2-1.8-0.7s-0.7-1.1-0.7-1.8v-22.2C451.2,482.4,451.5,481.8,452,481.4z"/>
		<path class="st0" d="M465.5,469.7c0.5-0.5,1.1-0.7,1.8-0.7c0.7,0,1.3,0.2,1.8,0.7s0.7,1.1,0.7,1.8v27.3c0,1.2,0.2,2.2,0.7,3
			c0.5,0.8,1.1,1.2,1.8,1.2h1.2c0.7,0,1.2,0.2,1.6,0.7c0.4,0.5,0.6,1.1,0.6,1.8c0,0.7-0.3,1.3-1,1.8c-0.6,0.5-1.5,0.7-2.5,0.7h-0.1
			c-1.4,0-2.7-0.4-3.9-1.2s-2-1.9-2.7-3.3c-0.6-1.4-1-3-1-4.8v-27.3C464.8,470.7,465.1,470.1,465.5,469.7z"/>
		<path class="st0" d="M504.8,469.7c0.5,0.5,0.7,1.1,0.7,1.8v22.8c0,2.6-0.6,5-1.8,7.1c-1.2,2.1-2.9,3.8-5,5c-2.1,1.2-4.4,1.8-7,1.8
			c-2.6,0-4.9-0.6-7-1.8c-2.1-1.2-3.8-2.9-5-5c-1.2-2.1-1.8-4.5-1.8-7.1c0-2.6,0.6-5,1.7-7.1c1.1-2.1,2.6-3.8,4.6-5s4.1-1.8,6.5-1.8
			c1.9,0,3.7,0.4,5.4,1.2s3.1,1.9,4.2,3.3v-13.5c0-0.8,0.2-1.4,0.7-1.8c0.5-0.5,1.1-0.7,1.8-0.7C503.7,469,504.3,469.2,504.8,469.7z
			 M496.3,502.5c1.4-0.8,2.4-1.9,3.2-3.4c0.8-1.4,1.2-3,1.2-4.8c0-1.8-0.4-3.4-1.2-4.8s-1.8-2.5-3.2-3.4c-1.3-0.8-2.9-1.2-4.5-1.2
			c-1.7,0-3.2,0.4-4.5,1.2c-1.3,0.8-2.4,1.9-3.2,3.4s-1.2,3-1.2,4.8c0,1.8,0.4,3.4,1.2,4.8c0.8,1.4,1.9,2.6,3.2,3.4
			c1.3,0.8,2.9,1.2,4.5,1.2C493.4,503.7,494.9,503.3,496.3,502.5z"/>
		<path class="st0" d="M519.9,470.6c0.7,0.7,1,1.4,1,2.3c0,0.9-0.3,1.7-1,2.3c-0.7,0.6-1.4,1-2.3,1c-0.9,0-1.7-0.3-2.3-1
			c-0.6-0.7-1-1.4-1-2.3c0-0.9,0.3-1.7,1-2.3c0.7-0.7,1.4-1,2.3-1C518.4,469.6,519.2,469.9,519.9,470.6z M515.7,481.4
			c0.5-0.5,1.1-0.7,1.8-0.7c0.8,0,1.4,0.2,1.9,0.7c0.5,0.5,0.7,1.1,0.7,1.8v22.2c0,0.7-0.2,1.3-0.7,1.8c-0.5,0.5-1.1,0.7-1.9,0.7
			c-0.7,0-1.3-0.2-1.8-0.7s-0.7-1.1-0.7-1.8v-22.2C515,482.4,515.2,481.8,515.7,481.4z"/>
		<path class="st0" d="M549.4,481.9c1.8,1,3.3,2.5,4.3,4.4s1.6,4.2,1.6,6.9v12.3c0,0.7-0.2,1.3-0.7,1.8s-1.1,0.7-1.8,0.7
			s-1.3-0.2-1.8-0.7c-0.5-0.5-0.7-1.1-0.7-1.8v-12.3c0-2.7-0.7-4.7-2.2-6.1c-1.5-1.4-3.4-2.1-5.8-2.1c-1.4,0-2.7,0.3-3.8,0.8
			c-1.2,0.6-2.1,1.3-2.7,2.3c-0.7,1-1,2-1,3.2v14.1c0,0.7-0.2,1.3-0.7,1.8c-0.5,0.5-1.1,0.7-1.9,0.7c-0.7,0-1.3-0.2-1.8-0.7
			s-0.7-1.1-0.7-1.8v-22.3c0-0.8,0.2-1.4,0.7-1.8s1.1-0.7,1.8-0.7c0.8,0,1.4,0.2,1.9,0.7c0.5,0.5,0.7,1.1,0.7,1.8v0.5
			c1.1-1.1,2.3-1.9,3.8-2.5c1.5-0.6,3-0.9,4.7-0.9C545.5,480.4,547.6,480.9,549.4,481.9z"/>
		<path class="st0" d="M583.2,482.2c2.1,1.2,3.7,2.8,4.9,4.9c1.2,2.1,1.8,4.5,1.8,7.2v10.8c0,2.6-0.6,5-1.8,7.2
			c-1.2,2.2-2.8,3.9-4.9,5.1s-4.5,1.9-7.2,1.9c-2.4,0-4.6-0.5-6.7-1.4s-3.8-2.3-5.2-4.1c-0.4-0.5-0.6-0.9-0.6-1.4
			c0-0.7,0.4-1.3,1.1-1.8c0.5-0.3,0.9-0.5,1.4-0.5c0.8,0,1.5,0.3,2,1c0.9,1.2,2,2.1,3.4,2.7c1.4,0.6,2.9,0.9,4.7,0.9
			c1.6,0,3.1-0.4,4.4-1.2s2.4-1.9,3.2-3.5s1.2-3.3,1.2-5.4v-2.5c-1,1.8-2.4,3.3-4.1,4.3c-1.7,1-3.6,1.5-5.8,1.5
			c-2.5,0-4.7-0.6-6.6-1.8c-2-1.2-3.5-2.8-4.6-4.9s-1.6-4.5-1.6-7.2c0-2.7,0.6-5.1,1.8-7.2c1.2-2.1,2.8-3.7,4.9-4.9s4.5-1.8,7.2-1.8
			C578.7,480.5,581.1,481,583.2,482.2z M580.7,502.5c1.4-0.8,2.4-1.9,3.2-3.3c0.8-1.4,1.1-3,1.1-4.8c0-1.8-0.4-3.4-1.1-4.8
			c-0.8-1.4-1.8-2.5-3.2-3.3c-1.3-0.8-2.9-1.2-4.6-1.2c-1.7,0-3.2,0.4-4.6,1.2c-1.4,0.8-2.4,1.9-3.2,3.3c-0.8,1.4-1.2,3-1.2,4.8
			c0,1.8,0.4,3.4,1.2,4.8c0.8,1.4,1.8,2.5,3.2,3.3c1.3,0.8,2.9,1.2,4.6,1.2C577.8,503.7,579.3,503.3,580.7,502.5z"/>
		<path class="st0" d="M637.5,469.7c0.5,0.5,0.7,1.1,0.7,1.8v22.8c0,2.6-0.6,5-1.8,7.1c-1.2,2.1-2.9,3.8-5,5c-2.1,1.2-4.4,1.8-7,1.8
			c-2.6,0-4.9-0.6-7-1.8c-2.1-1.2-3.8-2.9-5-5c-1.2-2.1-1.8-4.5-1.8-7.1c0-2.6,0.6-5,1.7-7.1c1.1-2.1,2.6-3.8,4.6-5s4.1-1.8,6.5-1.8
			c1.9,0,3.7,0.4,5.4,1.2s3.1,1.9,4.2,3.3v-13.5c0-0.8,0.2-1.4,0.7-1.8c0.5-0.5,1.1-0.7,1.8-0.7C636.5,469,637.1,469.2,637.5,469.7z
			 M629,502.5c1.4-0.8,2.4-1.9,3.2-3.4c0.8-1.4,1.2-3,1.2-4.8c0-1.8-0.4-3.4-1.2-4.8s-1.8-2.5-3.2-3.4c-1.3-0.8-2.9-1.2-4.5-1.2
			c-1.7,0-3.2,0.4-4.5,1.2c-1.3,0.8-2.4,1.9-3.2,3.4s-1.2,3-1.2,4.8c0,1.8,0.4,3.4,1.2,4.8c0.8,1.4,1.9,2.6,3.2,3.4
			c1.3,0.8,2.9,1.2,4.5,1.2C626.2,503.7,627.7,503.3,629,502.5z"/>
		<path class="st0" d="M664.8,481.2c1,0.5,1.5,1.2,1.5,2c0,0.2,0,0.4,0,0.5c-0.3,1.1-1,1.6-2,1.6c-0.2,0-0.4,0-0.8-0.1
			c-1.3-0.2-2.4-0.4-3.2-0.4c-2.4,0-4.3,0.5-5.8,1.7c-1.5,1.1-2.2,2.6-2.2,4.5v14.6c0,0.8-0.2,1.4-0.6,1.8c-0.4,0.4-1,0.7-1.9,0.7
			c-0.8,0-1.4-0.2-1.8-0.6c-0.4-0.4-0.7-1-0.7-1.9v-22.3c0-0.8,0.2-1.4,0.7-1.9c0.4-0.4,1-0.6,1.8-0.6c1.7,0,2.5,0.8,2.5,2.5v0.9
			c1-1.2,2.2-2.1,3.7-2.7c1.5-0.7,3-1,4.7-1C662.4,480.4,663.8,480.6,664.8,481.2z"/>
		<path class="st0" d="M693.4,495.5c-0.4,0.4-1,0.6-1.7,0.6h-19c0.4,2.3,1.4,4.2,3.2,5.7c1.8,1.4,3.9,2.2,6.4,2.2c1,0,2-0.2,3.1-0.6
			c1.1-0.4,2-0.8,2.7-1.3c0.5-0.4,1-0.5,1.6-0.5c0.6,0,1.1,0.2,1.5,0.5c0.6,0.5,0.9,1.1,0.9,1.7c0,0.6-0.3,1.1-0.8,1.5
			c-1.1,0.9-2.5,1.6-4.2,2.2c-1.7,0.6-3.3,0.9-4.8,0.9c-2.7,0-5.2-0.6-7.3-1.8c-2.2-1.2-3.9-2.8-5.1-4.9s-1.8-4.5-1.8-7.2
			c0-2.7,0.6-5.1,1.7-7.2c1.1-2.1,2.8-3.8,4.8-4.9s4.4-1.8,7-1.8c2.6,0,4.8,0.6,6.7,1.7c1.9,1.1,3.3,2.7,4.3,4.8s1.5,4.4,1.5,7
			C694.1,494.5,693.9,495.1,693.4,495.5z M675.7,486.7c-1.5,1.3-2.5,3.1-2.9,5.3h16.7c-0.3-2.2-1.1-4-2.5-5.3c-1.4-1.3-3.2-2-5.4-2
			C679.2,484.7,677.2,485.4,675.7,486.7z"/>
		<path class="st0" d="M719,482.3c2.1,1.2,3.7,2.9,5,5c1.2,2.1,1.8,4.5,1.8,7.1v11.2c0,0.7-0.2,1.3-0.7,1.8s-1.1,0.7-1.8,0.7
			s-1.3-0.2-1.8-0.7c-0.5-0.5-0.7-1.1-0.7-1.8v-1.8c-1.2,1.4-2.6,2.5-4.2,3.3s-3.5,1.2-5.4,1.2c-2.4,0-4.6-0.6-6.5-1.8
			c-2-1.2-3.5-2.9-4.6-5c-1.1-2.1-1.7-4.5-1.7-7.1c0-2.6,0.6-5,1.8-7.1c1.2-2.1,2.9-3.8,5-5c2.1-1.2,4.5-1.8,7-1.8
			C714.6,480.5,716.9,481.1,719,482.3z M716.5,502.5c1.4-0.8,2.4-1.9,3.2-3.3c0.8-1.4,1.2-3,1.2-4.8c0-1.8-0.4-3.4-1.2-4.8
			c-0.8-1.4-1.8-2.6-3.2-3.4c-1.3-0.8-2.9-1.2-4.5-1.2c-1.7,0-3.2,0.4-4.5,1.2c-1.3,0.8-2.4,1.9-3.2,3.4c-0.8,1.4-1.2,3-1.2,4.8
			c0,1.8,0.4,3.4,1.2,4.8c0.8,1.4,1.9,2.5,3.2,3.3c1.3,0.8,2.9,1.2,4.5,1.2C713.7,503.7,715.2,503.3,716.5,502.5z"/>
		<path class="st0" d="M769.1,483.2c1.8,1.9,2.7,4.5,2.7,8v14.3c0,0.7-0.2,1.3-0.7,1.8s-1.1,0.7-1.8,0.7c-0.7,0-1.3-0.2-1.8-0.7
			c-0.5-0.5-0.7-1.1-0.7-1.8v-14.3c0-2-0.5-3.6-1.5-4.6c-1-1-2.4-1.6-4.1-1.6c-1.7,0-3.2,0.6-4.3,1.8s-1.7,2.7-1.7,4.6v14.1
			c0,0.7-0.2,1.3-0.7,1.8s-1.1,0.7-1.8,0.7c-0.7,0-1.3-0.2-1.8-0.7s-0.7-1.1-0.7-1.8v-14.3c0-2-0.5-3.6-1.5-4.6s-2.4-1.6-4.1-1.6
			c-1.8,0-3.2,0.6-4.3,1.8c-1.1,1.2-1.7,2.7-1.7,4.6v14.1c0,0.7-0.2,1.3-0.7,1.8c-0.5,0.5-1.1,0.7-1.9,0.7c-0.7,0-1.3-0.2-1.8-0.7
			s-0.7-1.1-0.7-1.8v-22.2c0-0.8,0.2-1.4,0.7-1.8s1.1-0.7,1.8-0.7s1.3,0.2,1.8,0.7s0.7,1,0.8,1.8c0.9-0.9,1.9-1.5,3.1-2
			c1.2-0.5,2.5-0.7,3.9-0.7c1.7,0,3.2,0.3,4.6,1c1.4,0.7,2.5,1.7,3.3,2.9c1-1.2,2.2-2.2,3.8-2.9s3.2-1,5-1
			C765,480.4,767.3,481.4,769.1,483.2z"/>
		<path class="st0" d="M795.7,481.5c1.7,0.7,3.1,1.7,4.1,2.9c0.4,0.5,0.7,1.1,0.7,1.6c0,0.6-0.3,1.1-0.9,1.5
			c-0.4,0.3-0.8,0.4-1.4,0.4c-0.9,0-1.7-0.3-2.4-1c-0.8-0.8-1.7-1.3-2.6-1.6c-0.9-0.3-2.1-0.5-3.4-0.5c-1.5,0-2.8,0.3-3.8,0.8
			c-1,0.5-1.5,1.2-1.5,2.2c0,0.7,0.2,1.2,0.5,1.7c0.3,0.4,1,0.9,1.9,1.2c0.9,0.4,2.3,0.8,4,1.1c3.6,0.7,6.2,1.8,7.7,3s2.3,3,2.3,5
			c0,1.5-0.4,2.9-1.2,4.2c-0.8,1.2-2.1,2.2-3.7,3c-1.6,0.7-3.6,1.1-5.8,1.1c-2.3,0-4.4-0.4-6.4-1c-2-0.7-3.6-1.6-4.7-2.8
			c-0.4-0.4-0.6-1-0.6-1.6c0-0.8,0.3-1.4,1-1.9c0.6-0.5,1.2-0.7,1.8-0.7c0.7,0,1.3,0.3,1.9,0.9c0.6,0.7,1.6,1.3,2.9,1.8
			c1.3,0.5,2.6,0.8,4,0.8c1.9,0,3.4-0.3,4.4-1c1-0.6,1.6-1.5,1.6-2.5c0-1-0.5-1.9-1.5-2.6c-1-0.7-2.8-1.3-5.2-1.7
			c-6.4-1.2-9.6-3.9-9.6-7.9c0-1.6,0.5-3,1.5-4.1s2.2-2,3.8-2.6c1.6-0.6,3.2-0.8,5-0.8C792,480.5,794,480.8,795.7,481.5z"/>
		<path class="st0" d="M811.3,502.9c0.7,0.7,1,1.5,1,2.5c0,0.9-0.3,1.7-1,2.4c-0.7,0.7-1.5,1-2.5,1c-0.9,0-1.7-0.3-2.4-1
			c-0.7-0.7-1-1.5-1-2.4c0-1,0.3-1.8,1-2.5c0.7-0.7,1.5-1,2.4-1C809.8,501.8,810.6,502.2,811.3,502.9z"/>
	</g>
</g>
</svg>
