<svg id="Componente_9_1" data-name="Componente 9 – 1" xmlns="http://www.w3.org/2000/svg" width="92" height="31" viewBox="0 0 92 31">
  <defs>
    <style>
      .cls-1, .cls-2 {
        fill: #fff;
      }

      .cls-1 {
        opacity: 0;
      }
    </style>
  </defs>
  <rect id="Retângulo_38" data-name="Retângulo 38" class="cls-1" width="92" height="31" rx="8"/>
  <g id="Componente_1_8" data-name="Componente 1 – 8" transform="translate(5 3)">
    <path id="Caminho_8" data-name="Caminho 8" class="cls-2" d="M403.417,534.652a1.01,1.01,0,0,1-.73.277h-8.408a3.9,3.9,0,0,0,1.4,2.5,4.493,4.493,0,0,0,4.226.708,4.127,4.127,0,0,0,1.184-.6,1.147,1.147,0,0,1,.73-.243.952.952,0,0,1,.664.221.967.967,0,0,1,.4.752.8.8,0,0,1-.354.664,6.118,6.118,0,0,1-1.87.974,6.758,6.758,0,0,1-5.388-.409,5.7,5.7,0,0,1-2.246-2.179,6.193,6.193,0,0,1-.808-3.164,6.542,6.542,0,0,1,.763-3.175,5.52,5.52,0,0,1,2.124-2.19A6.064,6.064,0,0,1,398.2,528a5.564,5.564,0,0,1,2.943.753,4.962,4.962,0,0,1,1.9,2.1,6.932,6.932,0,0,1,.664,3.1A.926.926,0,0,1,403.417,534.652Zm-7.844-3.861a3.974,3.974,0,0,0-1.272,2.367h7.368a3.922,3.922,0,0,0-1.106-2.367,3.248,3.248,0,0,0-2.368-.885A3.827,3.827,0,0,0,395.573,530.791Z" transform="translate(-367.695 -523.246)"/>
    <path id="Caminho_9" data-name="Caminho 9" class="cls-2" d="M513.8,528.468a4.406,4.406,0,0,1,1.8,1.283,1.126,1.126,0,0,1,.288.708.886.886,0,0,1-.376.686,1.026,1.026,0,0,1-.62.177,1.511,1.511,0,0,1-1.04-.421,3.312,3.312,0,0,0-1.173-.719,4.722,4.722,0,0,0-1.5-.21,3.578,3.578,0,0,0-1.67.343,1.057,1.057,0,0,0-.653.963,1.21,1.21,0,0,0,.221.741,1.962,1.962,0,0,0,.841.553,10.668,10.668,0,0,0,1.792.5,7.721,7.721,0,0,1,3.419,1.35,2.807,2.807,0,0,1,1.007,2.235,3.261,3.261,0,0,1-.553,1.847,3.685,3.685,0,0,1-1.626,1.305,6.332,6.332,0,0,1-2.578.476,8.51,8.51,0,0,1-2.832-.465,5.425,5.425,0,0,1-2.08-1.217.936.936,0,0,1-.288-.686,1.03,1.03,0,0,1,.443-.863,1.341,1.341,0,0,1,.774-.31,1.184,1.184,0,0,1,.841.4,3.412,3.412,0,0,0,1.261.808,4.7,4.7,0,0,0,1.792.343,3.8,3.8,0,0,0,1.958-.42,1.272,1.272,0,0,0,.7-1.128,1.336,1.336,0,0,0-.686-1.139,6.753,6.753,0,0,0-2.323-.763q-4.248-.818-4.248-3.5a2.732,2.732,0,0,1,.642-1.836,3.9,3.9,0,0,1,1.682-1.129,6.459,6.459,0,0,1,2.213-.376A6.775,6.775,0,0,1,513.8,528.468Z" transform="translate(-468.647 -523.246)"/>
    <path id="Caminho_10" data-name="Caminho 10" class="cls-2" d="M615.988,529.057a1.124,1.124,0,0,1,1.936.819v9.846a1.116,1.116,0,0,1-.31.808,1.134,1.134,0,0,1-1.947-.808v-9.846A1.086,1.086,0,0,1,615.988,529.057Z" transform="translate(-565.46 -523.904)"/>
    <path id="Caminho_11" data-name="Caminho 11" class="cls-2" d="M673.979,528.789a5.652,5.652,0,0,1,2.168,2.179,6.379,6.379,0,0,1,.785,3.186v4.779a6.614,6.614,0,0,1-.774,3.186,5.755,5.755,0,0,1-2.179,2.268,6.125,6.125,0,0,1-3.175.83,7.012,7.012,0,0,1-2.965-.631,6.2,6.2,0,0,1-2.3-1.8,1,1,0,0,1-.243-.62.963.963,0,0,1,.465-.8,1.137,1.137,0,0,1,.62-.2,1.093,1.093,0,0,1,.907.465,3.892,3.892,0,0,0,1.5,1.184,4.952,4.952,0,0,0,2.058.409,3.818,3.818,0,0,0,1.969-.52,3.746,3.746,0,0,0,1.416-1.527,5.082,5.082,0,0,0,.531-2.4v-1.084a5.116,5.116,0,0,1-1.814,1.9,4.8,4.8,0,0,1-2.545.686,5.537,5.537,0,0,1-2.932-.785,5.37,5.37,0,0,1-2.013-2.179,6.8,6.8,0,0,1-.719-3.164,6.448,6.448,0,0,1,.774-3.186,5.552,5.552,0,0,1,2.168-2.179,6.335,6.335,0,0,1,3.164-.786A6.23,6.23,0,0,1,673.979,528.789Zm-1.106,8.972a3.669,3.669,0,0,0,1.394-1.471,4.494,4.494,0,0,0,.5-2.135,4.56,4.56,0,0,0-.5-2.146,3.654,3.654,0,0,0-1.394-1.482,4.126,4.126,0,0,0-4.049,0,3.73,3.73,0,0,0-1.4,1.482,4.476,4.476,0,0,0-.509,2.146,4.412,4.412,0,0,0,.509,2.135,3.747,3.747,0,0,0,1.4,1.471,4.125,4.125,0,0,0,4.049,0Z" transform="translate(-609.232 -523.876)"/>
    <path id="Caminho_12" data-name="Caminho 12" class="cls-2" d="M804.187,528.482a4.68,4.68,0,0,1,1.9,1.936,6.379,6.379,0,0,1,.686,3.065v5.443a1.129,1.129,0,1,1-2.257,0v-5.443A3.266,3.266,0,0,0,801,529.854a3.777,3.777,0,0,0-1.693.376,3,3,0,0,0-1.195,1.018,2.52,2.52,0,0,0-.432,1.438v6.24a1.116,1.116,0,0,1-.31.808,1.134,1.134,0,0,1-1.947-.808v-9.868a1.086,1.086,0,0,1,.321-.819,1.124,1.124,0,0,1,1.936.819v.243a4.917,4.917,0,0,1,1.682-1.1,5.579,5.579,0,0,1,2.08-.387A5.636,5.636,0,0,1,804.187,528.482Z" transform="translate(-725.016 -523.081)"/>
    <path id="Caminho_13" data-name="Caminho 13" class="cls-2" d="M615.368,488.1a1.443,1.443,0,1,1-1.029-.431A1.4,1.4,0,0,1,615.368,488.1Z" transform="translate(-563.007 -487.341)"/>
    <path id="Caminho_1" data-name="Caminho 1" class="cls-2" d="M191.2,484.95h-3.006l-.05,0-.026,0-.035,0-.039.005-.017,0a1.471,1.471,0,0,0-.444.148,1.427,1.427,0,0,0-.419.331l-.007.008-.028.034-.018.023-.017.024-.026.036-.01.015-.03.047,0,0-10.163,16.784a1.361,1.361,0,0,0,.521,1.9,1.483,1.483,0,0,0,.726.189,1.457,1.457,0,0,0,1.25-.691l1.184-1.955a.284.284,0,0,1,.244-.135h6.042v7a1.418,1.418,0,0,0,1.445,1.39h0a1.418,1.418,0,0,0,1.445-1.39v-7H191.2a8.563,8.563,0,0,0,8.724-8.392h0A8.563,8.563,0,0,0,191.2,484.95Zm-8.892,14,4.52-7.465v7.465Zm14.726-5.612a5.726,5.726,0,0,1-5.834,5.612h-1.481V487.73H191.2a5.726,5.726,0,0,1,5.834,5.612Z" transform="translate(-176.664 -484.95)"/>
  </g>
</svg>
