<svg xmlns="http://www.w3.org/2000/svg" width="534" height="219.755" viewBox="0 0 534 219.755">
  <defs>
    <style>
      .cls-1, .cls-2 {
        fill: #fff;
      }

      .cls-2 {
        font-size: 50px;
        font-family: Comfortaa-Bold, Comfortaa;
        font-weight: 700;
      }
    </style>
  </defs>
  <g id="Grupo_68" data-name="Grupo 68" transform="translate(-376 -300.245)">
    <g id="Grupo_17" data-name="Grupo 17" transform="translate(199.336 -184.705)">
      <path id="Caminho_8" data-name="Caminho 8" class="cls-1" d="M464.934,571.185a6.561,6.561,0,0,1-4.742,1.8H405.586a25.308,25.308,0,0,0,9.125,16.239q7.545,6.18,18.466,6.179a27.949,27.949,0,0,0,8.982-1.581,26.794,26.794,0,0,0,7.688-3.879,7.448,7.448,0,0,1,4.742-1.581,6.183,6.183,0,0,1,4.31,1.436,6.282,6.282,0,0,1,2.587,4.886,5.207,5.207,0,0,1-2.3,4.311,39.73,39.73,0,0,1-12.142,6.323,43.889,43.889,0,0,1-34.991-2.658A37.005,37.005,0,0,1,397.466,588.5a40.222,40.222,0,0,1-5.245-20.55,42.488,42.488,0,0,1,4.958-20.621,35.851,35.851,0,0,1,13.8-14.227A39.383,39.383,0,0,1,431.02,528q11.064,0,19.113,4.887a32.233,32.233,0,0,1,12.358,13.651,45.027,45.027,0,0,1,4.311,20.119A6.017,6.017,0,0,1,464.934,571.185ZM413.991,546.11a25.808,25.808,0,0,0-8.263,15.376h47.853q-1.293-9.626-7.185-15.376t-15.376-5.748Q420.529,540.362,413.991,546.11Z" transform="translate(-56.268 -12.161)"/>
      <path id="Caminho_9" data-name="Caminho 9" class="cls-1" d="M555.679,531.022a28.619,28.619,0,0,1,11.712,8.335,7.314,7.314,0,0,1,1.868,4.6,5.758,5.758,0,0,1-2.443,4.455,6.665,6.665,0,0,1-4.024,1.15,9.814,9.814,0,0,1-6.755-2.731,21.51,21.51,0,0,0-7.616-4.671,30.666,30.666,0,0,0-9.772-1.365A23.241,23.241,0,0,0,527.8,543.02q-4.241,2.23-4.239,6.251A7.857,7.857,0,0,0,525,554.085q1.436,1.941,5.461,3.593a69.31,69.31,0,0,0,11.64,3.233q15.662,3.163,22.2,8.766a18.228,18.228,0,0,1,6.539,14.514,21.178,21.178,0,0,1-3.592,12,23.931,23.931,0,0,1-10.563,8.478,41.124,41.124,0,0,1-16.741,3.089,55.266,55.266,0,0,1-18.394-3.017q-8.622-3.017-13.508-7.9a6.079,6.079,0,0,1-1.868-4.455,6.69,6.69,0,0,1,2.874-5.6,8.711,8.711,0,0,1,5.029-2.012,7.692,7.692,0,0,1,5.461,2.587,22.163,22.163,0,0,0,8.192,5.246,30.492,30.492,0,0,0,11.639,2.227q8.192,0,12.718-2.73t4.527-7.329q0-4.453-4.455-7.4t-15.088-4.957q-27.591-5.314-27.591-22.7a17.744,17.744,0,0,1,4.167-11.927,25.355,25.355,0,0,1,10.921-7.33A41.947,41.947,0,0,1,538.938,528,44,44,0,0,1,555.679,531.022Z" transform="translate(-85.785 -12.161)"/>
      <path id="Caminho_10" data-name="Caminho 10" class="cls-1" d="M617.751,530.758a7.3,7.3,0,0,1,12.574,5.318v63.947a7.245,7.245,0,0,1-2.012,5.246,7.366,7.366,0,0,1-12.646-5.246V536.076A7.055,7.055,0,0,1,617.751,530.758Z" transform="translate(-112.928 -12.34)"/>
      <path id="Caminho_11" data-name="Caminho 11" class="cls-1" d="M724.737,533.1A36.711,36.711,0,0,1,738.82,547.26a41.431,41.431,0,0,1,5.1,20.693v31.04a42.956,42.956,0,0,1-5.029,20.693,37.38,37.38,0,0,1-14.155,14.729,39.785,39.785,0,0,1-20.621,5.389,45.543,45.543,0,0,1-19.256-4.1A40.238,40.238,0,0,1,669.915,624a6.5,6.5,0,0,1-1.581-4.024,6.255,6.255,0,0,1,3.018-5.173,7.381,7.381,0,0,1,4.024-1.293,7.1,7.1,0,0,1,5.891,3.018,25.278,25.278,0,0,0,9.772,7.688,32.162,32.162,0,0,0,13.365,2.659,24.8,24.8,0,0,0,12.789-3.377,24.324,24.324,0,0,0,9.2-9.916,33.009,33.009,0,0,0,3.448-15.592v-7.041A33.225,33.225,0,0,1,718.055,603.3a31.181,31.181,0,0,1-16.526,4.454,35.963,35.963,0,0,1-19.04-5.1A34.882,34.882,0,0,1,669.412,588.5a44.154,44.154,0,0,1-4.671-20.55,41.877,41.877,0,0,1,5.03-20.693A36.062,36.062,0,0,1,683.854,533.1,41.147,41.147,0,0,1,704.4,528,40.464,40.464,0,0,1,724.737,533.1Zm-7.185,58.271a23.832,23.832,0,0,0,9.054-9.555,29.189,29.189,0,0,0,3.233-13.868,29.616,29.616,0,0,0-3.233-13.939,23.735,23.735,0,0,0-9.054-9.628,26.793,26.793,0,0,0-26.3,0,24.226,24.226,0,0,0-9.125,9.628,29.073,29.073,0,0,0-3.305,13.939,28.656,28.656,0,0,0,3.305,13.868,24.332,24.332,0,0,0,9.125,9.555,26.788,26.788,0,0,0,26.3,0Z" transform="translate(-127.566 -16.248)"/>
      <path id="Caminho_12" data-name="Caminho 12" class="cls-1" d="M852.331,532.128A30.393,30.393,0,0,1,864.689,544.7q4.453,8.266,4.455,19.9v35.351a7.33,7.33,0,1,1-14.657,0V564.6q0-11.639-6.251-17.6t-16.6-5.964a24.527,24.527,0,0,0-10.993,2.443,19.5,19.5,0,0,0-7.76,6.61,16.366,16.366,0,0,0-2.8,9.341v40.523a7.251,7.251,0,0,1-2.011,5.246,7.366,7.366,0,0,1-12.646-5.246V535.865a7.055,7.055,0,0,1,2.083-5.318,7.3,7.3,0,0,1,12.575,5.318v1.581A31.93,31.93,0,0,1,821,530.333a36.231,36.231,0,0,1,13.508-2.515A36.6,36.6,0,0,1,852.331,532.128Z" transform="translate(-161.479 -12.101)"/>
      <path id="Caminho_13" data-name="Caminho 13" class="cls-1" d="M629.045,490.466a9.369,9.369,0,1,1-6.682-2.8A9.122,9.122,0,0,1,629.045,490.466Z" transform="translate(-112.317 -0.616)"/>
      <path id="Caminho_1" data-name="Caminho 1" class="cls-1" d="M271.062,484.95h-19.03c-.131,0-.262,0-.393.009l-.1,0c-.108.006-.216.014-.323.024l-.169.015c-.076.007-.151.018-.226.028s-.171.021-.255.034l-.112.019a9.554,9.554,0,0,0-2.881.961,9.27,9.27,0,0,0-2.721,2.148c-.015.018-.032.035-.046.053-.061.072-.121.146-.179.219-.04.05-.08.1-.12.15s-.076.1-.113.153c-.057.078-.114.156-.169.236l-.066.1c-.066.1-.132.2-.195.3l-.016.026-66,109.007a8.842,8.842,0,0,0,3.387,12.345,9.632,9.632,0,0,0,4.715,1.228,9.461,9.461,0,0,0,8.119-4.485l7.688-12.7a1.846,1.846,0,0,1,1.582-.875H242.67v45.475a9.212,9.212,0,0,0,9.386,9.028h0a9.212,9.212,0,0,0,9.385-9.028V593.957h9.62c31.294,0,56.662-24.4,56.662-54.5h0C327.724,509.352,302.356,484.95,271.062,484.95ZM213.313,575.9l29.358-48.483V575.9Zm95.64-36.447c0,20.129-16.965,36.447-37.891,36.447h-9.62V503.006h9.62c20.926,0,37.891,16.318,37.891,36.447Z" transform="translate(0 0)"/>
    </g>
    <text id="Construindo_sonhos" data-name="Construindo sonhos" class="cls-2" transform="translate(376 508)"><tspan x="0" y="0">Construindo sonhos</tspan></text>
  </g>
</svg>
