<?xml version="1.0" encoding="utf-8"?>
<!-- Generator: Adobe Illustrator 26.0.2, SVG Export Plug-In . SVG Version: 6.00 Build 0)  -->
<svg version="1.1" id="Camada_1" xmlns="http://www.w3.org/2000/svg" xmlns:xlink="http://www.w3.org/1999/xlink" x="0px" y="0px"
	 viewBox="0 0 15.5 15.5" style="enable-background:new 0 0 15.5 15.5;" xml:space="preserve">
<style type="text/css">
	.st0{fill:url(#SVGID_1_);}
	.st1{fill:none;}
</style>
<g>
	<g id="Camada_2_00000125580185655634643710000002963200677024940977_">
		<g id="Camada_1-2">
			
				<linearGradient id="SVGID_1_" gradientUnits="userSpaceOnUse" x1="7.717" y1="7.0036" x2="7.717" y2="13.5357" gradientTransform="matrix(1 0 0 -1 0 18)">
				<stop  offset="0" style="stop-color:#980771"/>
				<stop  offset="1" style="stop-color:#980771"/>
			</linearGradient>
			<path class="st0" d="M10.9,10.3L9.8,9.2c1-1.3,0.7-3.2-0.6-4.1S6,4.3,5,5.6S4.3,8.8,5.6,9.8c1,0.8,2.5,0.8,3.5,0l1.1,1.1
				c0.2,0.2,0.4,0.2,0.6,0C11,10.7,11,10.4,10.9,10.3z M7.4,9.5c-1.2,0-2.1-0.9-2.1-2.1s0.9-2.1,2.1-2.1s2.1,0.9,2.1,2.1
				S8.6,9.5,7.4,9.5z"/>
		</g>
	</g>
	<path class="st1" d="M7.7,15.5L7.7,15.5C3.5,15.5,0,12,0,7.7v0C0,3.5,3.5,0,7.7,0h0c4.3,0,7.7,3.5,7.7,7.7v0
		C15.5,12,12,15.5,7.7,15.5z"/>
</g>
</svg>
