<?xml version="1.0" encoding="utf-8"?>
<!-- Generator: Adobe Illustrator 26.0.3, SVG Export Plug-In . SVG Version: 6.00 Build 0)  -->
<svg version="1.1" id="Camada_1" xmlns="http://www.w3.org/2000/svg" xmlns:xlink="http://www.w3.org/1999/xlink" x="0px" y="0px"
	 viewBox="0 0 1850 1850" style="enable-background:new 0 0 1850 1850;" xml:space="preserve">
<style type="text/css">
	.st0{clip-path:url(#SVGID_00000147922691783128409840000005034378530724503182_);}
	.st1{fill:url(#SVGID_00000012456665525237249560000000938046424943393213_);}
	.st2{fill:url(#SVGID_00000038372861984287933590000015149487174566423965_);}
	.st3{fill:url(#SVGID_00000088835986239575706360000006996124343748821888_);}
	.st4{fill:none;}
</style>
<g>
	<g>
		
			<image style="overflow:visible;opacity:0.8;" width="1024" height="1021" xlink:href="47896E12.png"  transform="matrix(1 0 0 1 411.25 453.75)">
		</image>
		<g>
			<g>
				<defs>
					<path id="SVGID_1_" d="M1306.8,1229.4l-131.3-131.3c119.4-155.2,83.5-381.9-71.6-489.4S722,513.2,602.6,668.4
						s-83.5,381.9,71.6,501.3c119.4,95.5,298.4,95.5,417.7,0l131.3,131.3c23.9,23.9,47.7,23.9,71.6,0
						C1318.7,1277.1,1318.7,1241.3,1306.8,1229.4z M889.1,1133.9c-143.2,0-250.6-107.4-250.6-250.6s107.4-250.6,250.6-250.6
						s250.6,107.4,250.6,250.6S1032.3,1133.9,889.1,1133.9z"/>
				</defs>
				<clipPath id="SVGID_00000112591432241165933900000005837301812084714628_">
					<use xlink:href="#SVGID_1_"  style="overflow:visible;"/>
				</clipPath>
			</g>
			<g>
				<defs>
					<path id="SVGID_00000076593251387478622310000005225249704107600794_" d="M1306.8,1229.4l-131.3-131.3
						c119.4-155.2,83.5-381.9-71.6-489.4S722,513.2,602.6,668.4s-83.5,381.9,71.6,501.3c119.4,95.5,298.4,95.5,417.7,0l131.3,131.3
						c23.9,23.9,47.7,23.9,71.6,0C1318.7,1277.1,1318.7,1241.3,1306.8,1229.4z M889.1,1133.9c-143.2,0-250.6-107.4-250.6-250.6
						s107.4-250.6,250.6-250.6s250.6,107.4,250.6,250.6S1032.3,1133.9,889.1,1133.9z"/>
				</defs>
				<clipPath id="SVGID_00000176721876467250477660000013825071796951886730_">
					<use xlink:href="#SVGID_00000076593251387478622310000005225249704107600794_"  style="overflow:visible;"/>
				</clipPath>
				<g style="clip-path:url(#SVGID_00000176721876467250477660000013825071796951886730_);">
					
						<linearGradient id="SVGID_00000079453888551001389780000008774067355261133224_" gradientUnits="userSpaceOnUse" x1="923.1086" y1="2374.4736" x2="923.1086" y2="1594.8358" gradientTransform="matrix(1 0 0 1 0 -1062)">
						<stop  offset="0" style="stop-color:#980771"/>
						<stop  offset="1" style="stop-color:#980771"/>
					</linearGradient>
					<path style="fill:url(#SVGID_00000079453888551001389780000008774067355261133224_);" d="M1306.8,1229.4l-131.3-131.3
						c119.4-155.2,83.5-381.9-71.6-489.4S722,513.2,602.6,668.4s-83.5,381.9,71.6,501.3c119.4,95.5,298.4,95.5,417.7,0l131.3,131.3
						c23.9,23.9,47.7,23.9,71.6,0C1318.7,1277.1,1318.7,1241.3,1306.8,1229.4z M889.1,1133.9c-143.2,0-250.6-107.4-250.6-250.6
						s107.4-250.6,250.6-250.6s250.6,107.4,250.6,250.6S1032.3,1133.9,889.1,1133.9z"/>
					<g>
						
							<image style="overflow:visible;opacity:0.6;" width="1959" height="1971" xlink:href="47896E1D.png"  transform="matrix(1 0 0 1 -54.75 -24.25)">
						</image>
						<g>
							<g>
								
									<linearGradient id="SVGID_00000098203049865260775970000012853748366531547278_" gradientUnits="userSpaceOnUse" x1="638.4193" y1="883.2251" x2="1139.7111" y2="883.2251">
									<stop  offset="0" style="stop-color:#980771"/>
									<stop  offset="1" style="stop-color:#980771"/>
								</linearGradient>
								<path style="fill:url(#SVGID_00000098203049865260775970000012853748366531547278_);" d="M889.1,632.6
									c-143.2,0-250.6,107.4-250.6,250.6c0,143.2,107.4,250.6,250.6,250.6c143.2,0,250.6-107.4,250.6-250.6
									C1139.7,740,1032.3,632.6,889.1,632.6z"/>
								
									<linearGradient id="SVGID_00000082354570066371934910000010436207670303878065_" gradientUnits="userSpaceOnUse" x1="5.8401" y1="925" x2="1844.157" y2="925">
									<stop  offset="0" style="stop-color:#980771"/>
									<stop  offset="1" style="stop-color:#980771"/>
								</linearGradient>
								<path style="fill:url(#SVGID_00000082354570066371934910000010436207670303878065_);" d="M924.9,0
									C423.6,0,5.8,417.7,5.8,919c0,513.2,417.7,931,919,931c513.2,0,931-417.7,919-931C1843.9,417.7,1438.1,0,924.9,0z
									 M1294.9,1301c-23.9,23.9-47.7,23.9-71.6,0L1092,1169.7c-119.4,95.5-298.4,95.5-417.7,0c-155.2-119.4-191-346.1-71.6-501.3
									c119.4-155.2,346.1-167.1,501.3-59.7c155.2,107.4,191,334.2,71.6,489.4l131.3,131.3
									C1318.7,1241.3,1318.7,1277.1,1294.9,1301z"/>
							</g>
						</g>
					</g>
				</g>
			</g>
			<g>
				<defs>
					<path id="SVGID_00000114788819051102211070000006842857081540961464_" d="M1306.8,1229.4l-131.3-131.3
						c119.4-155.2,83.5-381.9-71.6-489.4S722,513.2,602.6,668.4s-83.5,381.9,71.6,501.3c119.4,95.5,298.4,95.5,417.7,0l131.3,131.3
						c23.9,23.9,47.7,23.9,71.6,0C1318.7,1277.1,1318.7,1241.3,1306.8,1229.4z M889.1,1133.9c-143.2,0-250.6-107.4-250.6-250.6
						s107.4-250.6,250.6-250.6s250.6,107.4,250.6,250.6S1032.3,1133.9,889.1,1133.9z"/>
				</defs>
				<clipPath id="SVGID_00000039101221307837844810000011860732098207143608_">
					<use xlink:href="#SVGID_00000114788819051102211070000006842857081540961464_"  style="overflow:visible;"/>
				</clipPath>
			</g>
		</g>
	</g>
	<path class="st4" d="M924.9,1850L924.9,1850c-501.3,0-919-417.7-919-931l0,0c0-501.3,417.7-919,919-919l0,0
		c513.2,0,919,417.7,919,919l0,0C1855.8,1432.3,1438.1,1850,924.9,1850z"/>
</g>
</svg>
