<?xml version="1.0" encoding="utf-8"?>
<!-- Generator: Adobe Illustrator 26.0.3, SVG Export Plug-In . SVG Version: 6.00 Build 0)  -->
<svg version="1.1" id="Camada_1" xmlns="http://www.w3.org/2000/svg" xmlns:xlink="http://www.w3.org/1999/xlink" x="0px" y="0px"
	 viewBox="0 0 17.2 26.5" style="enable-background:new 0 0 17.2 26.5;" xml:space="preserve">
<style type="text/css">
	.st0{fill:url(#SVGID_1_);}
</style>
<g id="Subtração_1">
	
		<image style="overflow:visible;opacity:0.3;" width="23" height="32" xlink:href="64022566.png"  transform="matrix(1 0 0 1 -2.321 -2.865)">
	</image>
	<g>
		<linearGradient id="SVGID_1_" gradientUnits="userSpaceOnUse" x1="8.6138" y1="26.4564" x2="8.6138" y2="-1.367188e-04">
			<stop  offset="5.327789e-09" style="stop-color:#B41A83"/>
			<stop  offset="1" style="stop-color:#FFFFFF"/>
		</linearGradient>
		<path class="st0" d="M4,26.5c-0.1,0-0.3-0.1-0.4-0.1l-3.5-3.5c-0.2-0.2-0.2-0.5,0-0.7L9,13.2L0.1,4.4C0,4.2,0,3.8,0.1,3.6l3.5-3.5
			C3.7,0.1,3.9,0,4,0s0.3,0.1,0.4,0.1l12.7,12.7c0.2,0.2,0.2,0.5,0,0.7L4.4,26.3C4.3,26.4,4.1,26.5,4,26.5z"/>
	</g>
</g>
</svg>
