<?xml version="1.0" encoding="utf-8"?>
<!-- Generator: Adobe Illustrator 26.0.3, SVG Export Plug-In . SVG Version: 6.00 Build 0)  -->
<svg version="1.1" id="Camada_1" xmlns="http://www.w3.org/2000/svg" xmlns:xlink="http://www.w3.org/1999/xlink" x="0px" y="0px"
	 viewBox="0 0 17.2 26.5" style="enable-background:new 0 0 17.2 26.5;" xml:space="preserve">
<style type="text/css">
	.st0{fill:#FFFFFF;}
	.st1{fill:none;stroke:#FFFFFF;stroke-width:1.0393;stroke-linecap:round;stroke-linejoin:round;}
	.st2{filter:url(#Adobe_OpacityMaskFilter);}
	.st3{opacity:0.3;mask:url(#SVGID_1_);}
	.st4{fill:none;stroke:#000000;stroke-width:1.0393;stroke-linecap:round;stroke-linejoin:round;}
</style>
<g id="Subtração_1_00000096737457136104225510000011738053405472591795_">
	<g>
		<polygon class="st0" points="4,26 4,26 16.7,13.2 4,0.5 0.5,4 9.7,13.2 0.5,22.5 4,26 		"/>
		<polygon class="st1" points="4,26 4,26 16.7,13.2 4,0.5 0.5,4 9.7,13.2 0.5,22.5 4,26 		"/>
	</g>
	<defs>
		<filter id="Adobe_OpacityMaskFilter" filterUnits="userSpaceOnUse" x="0" y="0" width="17.3" height="26.5">
			
				<feColorMatrix  type="matrix" values="-1 0 0 0 1  0 -1 0 0 1  0 0 -1 0 1  0 0 0 1 0" color-interpolation-filters="sRGB" result="source"/>
		</filter>
	</defs>
	<mask maskUnits="userSpaceOnUse" x="0" y="0" width="17.3" height="26.5" id="SVGID_1_">
		<g class="st2">
			<image style="overflow:visible;" width="23" height="31" xlink:href="2DC3FEBC.jpg"  transform="matrix(1 0 0 1 -3 -2.5)">
			</image>
		</g>
	</mask>
	<g class="st3">
		<polygon points="4,26 4,26 16.7,13.2 4,0.5 0.5,4 9.7,13.2 0.5,22.5 4,26 		"/>
		<polygon class="st4" points="4,26 4,26 16.7,13.2 4,0.5 0.5,4 9.7,13.2 0.5,22.5 4,26 		"/>
	</g>
</g>
</svg>
